<svg width="12" height="12" viewBox="0 0 12 12" fill="none" xmlns="http://www.w3.org/2000/svg">
<path d="M3.41737 8.74541C5.16212 10.4902 7.28117 11.8365 9.01385 11.8365C9.79265 11.8365 10.4749 11.5648 11.0242 10.9611C11.3442 10.6049 11.5434 10.1883 11.5434 9.77777C11.5434 9.47591 11.4287 9.18612 11.145 8.98086L9.29156 7.66475C9.00781 7.47156 8.77236 7.37497 8.55502 7.37497C8.28335 7.37497 8.03582 7.53193 7.75811 7.80361L7.32947 8.22621C7.26306 8.29262 7.17854 8.32281 7.10006 8.32281C7.0095 8.32281 6.91894 8.28658 6.85857 8.2564C6.48426 8.05717 5.84432 7.50778 5.24664 6.91614C4.65499 6.32449 4.10561 5.68455 3.91242 5.31024C3.88223 5.24383 3.84601 5.15931 3.84601 5.06876C3.84601 4.99027 3.87016 4.91179 3.93657 4.84538L4.36521 4.40466C4.63084 4.12695 4.79385 3.88546 4.79385 3.60775C4.79385 3.39041 4.69121 3.15496 4.49199 2.87122L3.19399 1.04194C2.98269 0.752159 2.68687 0.625378 2.36086 0.625378C1.9624 0.625378 1.55187 0.806494 1.19568 1.15061C0.610069 1.71207 0.35047 2.40635 0.35047 3.17308C0.35047 4.90575 1.67262 7.0067 3.41737 8.74541Z" fill="#0000EE"/>
</svg>
