<svg width="20" height="20" viewBox="0 0 20 20" fill="none" xmlns="http://www.w3.org/2000/svg">
<path d="M18.7112 0.505096C18.5061 0.505096 18.3499 0.573456 18.2034 0.71994L13.9944 4.93869L12.5002 6.55978L12.6565 3.69846V2.24338C12.6565 1.86252 12.3733 1.56955 11.9924 1.55002C11.6018 1.53049 11.26 1.84299 11.26 2.24338V7.89767C11.26 8.41525 11.5139 8.66916 12.0315 8.66916H17.7053C18.1057 8.66916 18.428 8.34689 18.4084 7.9465C18.3889 7.56564 18.0862 7.28244 17.7053 7.28244H16.2307L13.3596 7.43869L15.0002 5.94455L19.1995 1.7258C19.3655 1.56955 19.4436 1.39377 19.4436 1.18869C19.4436 0.807831 19.1213 0.505096 18.7112 0.505096ZM5.82056 14.011C8.64282 16.8332 12.0706 19.011 14.8733 19.011C16.1331 19.011 17.2366 18.5715 18.1252 17.5949C18.6428 17.0188 18.9651 16.3449 18.9651 15.6809C18.9651 15.1926 18.7795 14.7238 18.3206 14.3918L15.3225 12.2629C14.8635 11.9504 14.4827 11.7942 14.1311 11.7942C13.6917 11.7942 13.2913 12.0481 12.842 12.4875L12.1487 13.1711C12.0413 13.2785 11.9045 13.3274 11.7776 13.3274C11.6311 13.3274 11.4846 13.2688 11.387 13.2199C10.7815 12.8977 9.74634 12.009 8.77954 11.052C7.82251 10.0949 6.93384 9.05978 6.62134 8.45432C6.57251 8.34689 6.51392 8.21017 6.51392 8.06369C6.51392 7.93674 6.55298 7.80978 6.6604 7.70236L7.35376 6.98947C7.78345 6.54025 8.04712 6.14963 8.04712 5.70041C8.04712 5.34885 7.8811 4.96799 7.55884 4.509L5.45923 1.55002C5.11743 1.08127 4.63892 0.87619 4.11157 0.87619C3.46704 0.87619 2.80298 1.16916 2.22681 1.7258C1.27954 2.634 0.859619 3.75705 0.859619 4.99728C0.859619 7.80002 2.99829 11.1985 5.82056 14.011Z" fill="white"/>
</svg>
