<svg width="23" height="22" viewBox="0 0 23 22" fill="none" xmlns="http://www.w3.org/2000/svg">
<path d="M6.64844 15.8477C10.0352 19.2344 14.1484 21.8477 17.5117 21.8477C19.0234 21.8477 20.3477 21.3203 21.4141 20.1484C22.0352 19.457 22.4219 18.6484 22.4219 17.8516C22.4219 17.2656 22.1992 16.7031 21.6484 16.3047L18.0508 13.75C17.5 13.375 17.043 13.1875 16.6211 13.1875C16.0938 13.1875 15.6133 13.4922 15.0742 14.0195L14.2422 14.8398C14.1133 14.9688 13.9492 15.0273 13.7969 15.0273C13.6211 15.0273 13.4453 14.957 13.3281 14.8984C12.6016 14.5117 11.3594 13.4453 10.1992 12.2969C9.05078 11.1484 7.98438 9.90625 7.60938 9.17969C7.55078 9.05078 7.48047 8.88672 7.48047 8.71094C7.48047 8.55859 7.52734 8.40625 7.65625 8.27734L8.48828 7.42188C9.00391 6.88281 9.32031 6.41406 9.32031 5.875C9.32031 5.45312 9.12109 4.99609 8.73438 4.44531L6.21484 0.894531C5.80469 0.332031 5.23047 0.0859375 4.59766 0.0859375C3.82422 0.0859375 3.02734 0.4375 2.33594 1.10547C1.19922 2.19531 0.695312 3.54297 0.695312 5.03125C0.695312 8.39453 3.26172 12.4727 6.64844 15.8477Z" fill="white"/>
</svg>
